PathFileType	4	(X/Y/Z)	Patient4_TMGait_0pt6_02_right_24.trc.trc
DataRate	CameraRate	NumFrames	NumMarkers	Units	OrigDataRate	OrigDataStartFrame	OrigNumFrames
81.871345029240	81.871345029240	5	33	mm	81.871345029240	18	       141
Frame#	Time	Sacral			L.Shoulder			Chest			R.Shoulder			Neck			R.ASIS			L.ASIS			R.Thigh.Superior			R.Thigh.Lateral			R.Thigh.Inferior			R.Patella			L.Thigh.Superior			L.Thigh.Lateral			L.Thigh.Inferior			L.Patella			L.Shank.Superior			L.Shank.Lateral			L.Shank.Inferior			R.Shank.Superior			R.Shank.Lateral			R.Shank.Inferior			R.Heel			R.Midfoot.Superior			R.Midfoot.Lateral			R.Toe			L.Heel			L.Midfoot.Lateral			L.Midfoot.Superior			L.Toe			L.Elbow			L.Wrist			R.Elbow			R.Wrist			
		X1	Y1	Z1	X2	Y2	Z2	X3	Y3	Z3	X4	Y4	Z4	X5	Y5	Z5	X6	Y6	Z6	X7	Y7	Z7	X8	Y8	Z8	X9	Y9	Z9	X10	Y10	Z10	X11	Y11	Z11	X12	Y12	Z12	X13	Y13	Z13	X14	Y14	Z14	X15	Y15	Z15	X16	Y16	Z16	X17	Y17	Z17	X18	Y18	Z18	X19	Y19	Z19	X20	Y20	Z20	X21	Y21	Z21	X22	Y22	Z22	X23	Y23	Z23	X24	Y24	Z24	X25	Y25	Z25	X26	Y26	Z26	X27	Y27	Z27	X28	Y28	Z28	X29	Y29	Z29	X30	Y30	Z30	X31	Y31	Z31	X32	Y32	Z32	X33	Y33	Z33	

18	28.967642857143	811.785295651646	1011.477660147994	412.951371110998	1021.289368514213	1432.115714375696	240.028951511855	1111.428526549474	1354.141399018586	404.099048960792	1025.250130291222	1434.043270013831	573.616582926614	1017.573577310369	1492.078936130281	391.157183099175	1033.276699052145	942.330867961450	538.289548051059	1025.806866307158	957.938956180613	263.621586424333	1111.272469006593	778.036098986906	505.976158599720	1079.256624413017	656.605659614357	584.611594739157	1166.398343284645	622.114105003346	501.084131947044	1206.280191498900	537.438218020970	520.526880676487	1038.291562736096	734.142006800122	295.186979593117	924.915681179693	637.027233829834	232.388534475367	985.735668722147	545.683172736995	299.175233522751	971.725087520847	479.896921173741	309.837316471995	942.177221245340	413.034643180858	301.803803766543	845.368937320015	304.537731634123	252.552245119720	887.084060687853	191.647233840981	327.188625031846	1186.644435789684	448.373737628046	532.047618541158	1132.191917418090	336.716657985038	598.041475658573	1197.151580057965	248.181344078092	545.873498073223	1100.357763940629	61.843043361588	521.687737730774	1265.048541269405	135.358645443832	558.909840372258	1186.468570225040	58.956560868412	593.194166650580	1389.578844588156	96.469695521082	580.342527149432	751.421795019743	39.699539558562	373.130557823113	823.875164303975	35.348190201055	291.591739565047	908.165058633764	95.818328076369	316.961274338645	1036.162467839762	40.650921779131	286.860473809392	1028.642056570139	1099.502071683699	83.047188560682	1280.480630518509	1057.494140872610	87.421687789377	868.639506599102	1128.626905786629	689.774895316294	826.845664408099	870.850682344142	704.461755700814	
19	28.979857142857	813.359225056417	1009.158896795209	415.211468754908	1019.794287731934	1430.511099084071	241.649359339894	1110.862323296864	1353.509799070874	405.647162796153	1024.587169228991	1433.408519774610	574.965762167670	1016.324159394593	1490.632600165755	392.501246645769	1034.977587268230	940.094583371945	540.118155302158	1027.378843734482	956.975665406339	265.463652124190	1111.377112812699	773.678292517532	508.114200130557	1076.918016376941	652.326754107701	586.080016600133	1164.051062129612	617.096024023275	503.013966330837	1202.468027283263	532.841625449436	522.041882575836	1036.659395522636	732.402123465697	296.406117807297	921.966568854651	636.724805072256	233.252621819513	981.362532371815	544.546568184158	299.853477103924	966.632173713987	478.922321953613	310.289040208710	936.621591669709	412.438849110675	302.204255341108	839.010660274528	304.590539780442	252.816902008153	880.153003603582	191.325677013512	327.309279259241	1183.475803259375	443.796956223291	533.314763827356	1129.087996815626	331.446861236098	597.966234086317	1195.254765520449	243.719818345909	545.975970566529	1100.007448432553	57.382585104125	519.748992304150	1264.038990526838	131.197456526273	558.851564437616	1185.350166273772	54.664379089610	592.130626471964	1388.405762993590	92.535258027444	581.156379453303	743.986315143348	39.572023472249	373.148196481397	816.421635681888	35.267064230085	291.596612391277	900.675244618766	95.759578301564	316.988236823084	1028.692079369933	40.668573924717	286.867172855191	1029.423644765323	1098.487268153413	84.260287922644	1282.206042492043	1065.851515900526	89.858487426030	863.659315608054	1131.324843561559	691.016258219243	818.954321424975	873.857113848646	705.425106484545	
20	28.992071428571	815.091712521828	1006.687433550814	417.713991849315	1018.175402311012	1428.750706040857	243.383087978542	1110.293393977681	1352.827395103243	407.282149602544	1023.908974785792	1432.670075087901	576.450916032031	1014.967003892082	1489.065912599385	393.960339544849	1036.899830165877	937.693616380561	542.045073832860	1029.045616914564	955.760853099871	267.437006482266	1111.990980716715	769.331356620998	510.399947509643	1074.808204256107	647.972140514805	587.328682808954	1162.186737369378	612.186423961204	504.943186727821	1198.906778963646	528.007327745212	523.381597263321	1035.353673052885	730.616191253525	297.694733446649	919.383285452323	636.327202298182	234.292831710569	977.463045934784	543.347226351595	300.680533692443	962.065455628404	477.798598808279	310.909794540024	931.494133910670	411.697999299827	302.754170455577	832.925882674983	304.632768241110	253.225583236290	873.340940469214	190.916294053669	327.507558709731	1180.065413604496	438.871470956085	534.328050811713	1124.936632322429	326.229130322642	597.583492740247	1191.639346716330	238.896297732148	545.783140016374	1096.532079679691	53.559091279764	517.562905098115	1260.353680958156	126.313468757117	558.389702877228	1181.003298077228	50.551993951166	590.921756344723	1384.264896203705	87.035301942770	581.847216452260	736.551482839497	39.407958747029	373.169519534282	808.977193991254	35.167740547353	291.615225107166	893.195088737717	95.693105522757	317.035048221406	1021.237945667989	40.662571308680	286.864442981764	1029.918470655145	1097.180164399830	85.725903578040	1283.316349423054	1073.540901627366	92.437866578418	859.689450107276	1133.347761938155	692.360736373171	812.667068590598	876.061706673093	706.303218044697	
21	29.004285714286	816.910273898616	1004.158995925538	420.421288091508	1016.513757033555	1426.881330744913	245.235818126661	1109.757705475751	1352.096854664140	409.015301944425	1023.256743181551	1431.840336456889	578.089611742222	1013.577272247757	1487.426780189639	395.552216927780	1038.982297280103	935.205567531465	544.057621106602	1030.721911115873	954.311046426916	269.525922403803	1113.065146315663	765.095976623956	512.827172762155	1072.917471889490	643.664368811281	588.345722796625	1160.794989698626	607.521758663400	506.832294275651	1195.645477030923	523.112514727893	524.468641860516	1034.448119653169	728.823349726798	299.043985919856	917.239845946516	635.822629452869	235.535327033483	974.165717098645	542.083741045614	301.672362823301	958.167496461374	476.496984787001	311.727329291814	926.910917595115	410.780933722145	303.483366977656	827.206785532159	304.672204405802	253.805081955672	866.694354914232	190.416391549982	327.800721614959	1176.555052063034	433.791714704136	535.038807889637	1120.105334035633	321.189806696951	596.984790893656	1186.713237753751	233.879095901226	545.299478798033	1090.528340156369	50.315253176732	515.325451292329	1254.540130101045	120.997786410780	557.529789522309	1174.123724187856	46.748519687438	589.674263420071	1377.825774209877	80.482288479352	582.297203623627	729.118403493451	39.235812315792	373.191449459233	801.549698962453	35.060468434743	291.649003344398	885.744013783884	95.622016107621	317.102308119898	1013.812643526955	40.625276309906	286.849053331254	1030.099172124307	1095.595624010615	87.470620045203	1283.833628208093	1080.469388847451	95.126108728377	856.778181548466	1134.621308582091	693.858197771364	808.007696561262	877.401417721237	707.157915830802	
22	29.016500000000	818.734437216726	1001.682546039549	423.285428555311	1014.896930929541	1424.974063176599	247.212247251334	1109.292376508930	1351.336817475916	410.857404745298	1022.677737790114	1430.949249762944	579.894328819490	1012.240994476562	1485.782484436063	397.293644796089	1041.150742274247	932.735560019178	546.145022621022	1032.333071441608	952.691417620176	271.710293471915	1114.524428032527	761.098038029842	515.368902055136	1071.262412085357	639.562100924493	589.148872655223	1159.842947501422	603.248932666964	508.631952204987	1192.730770392774	518.362266957299	525.250834332863	1033.991497890351	727.078681531817	300.454359940426	915.609919421247	635.206223917267	237.003196436803	971.602096000384	540.764617079996	302.842729753992	955.086246770030	474.997571029691	312.755686197119	922.986120943759	409.669047495311	304.411566586822	821.945272466144	304.731370753794	254.575524068254	860.264387416405	189.839879765319	328.197956438838	1173.096747098106	428.787135425415	535.432649603214	1114.988722826192	316.489281281550	596.281878139742	1180.931663748327	228.891513781279	544.558599457041	1082.695280035979	47.617762506585	513.220888982066	1247.208885229344	115.613900329693	556.325000210372	1165.494215060724	43.401289822823	588.489859006892	1369.811384433793	73.489434774837	582.435934807742	721.690944691960	39.111552959828	373.209154794785	794.148740097686	34.968280546753	291.697994382407	878.350041965598	95.552975495901	317.185559254577	1006.429167942877	40.550728030697	286.818358690238	1029.932907069016	1093.772531497416	89.525548847237	1283.781080855189	1086.535205113982	97.890880824813	854.965838521708	1135.111576703807	695.550063970345	804.992530982422	877.854586314573	708.057807865497	
